<mxfile modified="2019-12-23T14:42:39.771Z" host="www.draw.io" agent="Mozilla/5.0 (Macintosh; Intel Mac OS X 10_15_2) AppleWebKit/537.36 (KHTML, like Gecko) Chrome/79.0.3945.88 Safari/537.36" etag="khNrmhCPlLYbzAVmwbnB" version="12.4.3" type="github" pages="1">
  <diagram id="20c7962d-87de-d07c-a7db-288fee1c8ec6" name="Page-1">
    <mxGraphModel dx="2051" dy="1038" grid="1" gridSize="10" guides="1" tooltips="1" connect="1" arrows="1" fold="1" page="1" pageScale="1" pageWidth="827" pageHeight="1169" background="#ffffff" math="0" shadow="0">
      <root>
        <mxCell id="0"/>
        <mxCell id="1" parent="0"/>
        <mxCell id="3" value="" style="rounded=0;whiteSpace=wrap;html=1;" parent="1" vertex="1">
          <mxGeometry x="20" y="380" width="240" height="60" as="geometry"/>
        </mxCell>
        <mxCell id="4" value="" style="rounded=0;whiteSpace=wrap;html=1;" parent="1" vertex="1">
          <mxGeometry x="20" y="440" width="240" height="60" as="geometry"/>
        </mxCell>
        <mxCell id="5" value="" style="rounded=0;whiteSpace=wrap;html=1;" parent="1" vertex="1">
          <mxGeometry x="20" y="500" width="240" height="60" as="geometry"/>
        </mxCell>
        <mxCell id="6" value="" style="rounded=0;whiteSpace=wrap;html=1;" parent="1" vertex="1">
          <mxGeometry x="20" y="560" width="240" height="60" as="geometry"/>
        </mxCell>
        <mxCell id="7" value="" style="rounded=0;whiteSpace=wrap;html=1;" parent="1" vertex="1">
          <mxGeometry x="20" y="620" width="240" height="60" as="geometry"/>
        </mxCell>
        <mxCell id="8" value="" style="rounded=0;whiteSpace=wrap;html=1;" parent="1" vertex="1">
          <mxGeometry x="20" y="680" width="240" height="60" as="geometry"/>
        </mxCell>
        <mxCell id="9" value="&lt;font style=&quot;font-size: 25px&quot;&gt;Physical Storage&lt;/font&gt;" style="text;html=1;strokeColor=none;fillColor=none;align=center;verticalAlign=middle;whiteSpace=wrap;rounded=0;" parent="1" vertex="1">
          <mxGeometry x="40" y="690" width="200" height="40" as="geometry"/>
        </mxCell>
        <mxCell id="10" value="&lt;font style=&quot;font-size: 25px&quot;&gt;PhysicalVolume&lt;/font&gt;" style="text;html=1;strokeColor=none;fillColor=none;align=center;verticalAlign=middle;whiteSpace=wrap;rounded=0;" parent="1" vertex="1">
          <mxGeometry x="40" y="630" width="200" height="40" as="geometry"/>
        </mxCell>
        <mxCell id="11" value="&lt;font style=&quot;font-size: 25px&quot;&gt;Volume Group&lt;/font&gt;" style="text;html=1;strokeColor=none;fillColor=none;align=center;verticalAlign=middle;whiteSpace=wrap;rounded=0;" parent="1" vertex="1">
          <mxGeometry x="40" y="570" width="200" height="40" as="geometry"/>
        </mxCell>
        <mxCell id="12" value="&lt;font style=&quot;font-size: 25px&quot;&gt;LogicalVolumes&lt;/font&gt;" style="text;html=1;strokeColor=none;fillColor=none;align=center;verticalAlign=middle;whiteSpace=wrap;rounded=0;" parent="1" vertex="1">
          <mxGeometry x="40" y="510" width="200" height="40" as="geometry"/>
        </mxCell>
        <mxCell id="13" value="&lt;font style=&quot;font-size: 25px&quot;&gt;MaKeFileSystem&lt;/font&gt;" style="text;html=1;strokeColor=none;fillColor=none;align=center;verticalAlign=middle;whiteSpace=wrap;rounded=0;" parent="1" vertex="1">
          <mxGeometry x="40" y="450" width="200" height="40" as="geometry"/>
        </mxCell>
        <mxCell id="14" value="&lt;font style=&quot;font-size: 25px&quot;&gt;Mounting&lt;/font&gt;" style="text;html=1;strokeColor=none;fillColor=none;align=center;verticalAlign=middle;whiteSpace=wrap;rounded=0;" parent="1" vertex="1">
          <mxGeometry x="40" y="390" width="200" height="40" as="geometry"/>
        </mxCell>
        <mxCell id="19" value="&lt;h1&gt;&lt;font style=&quot;font-size: 18px&quot;&gt;$&lt;/font&gt; &lt;font style=&quot;font-size: 18px&quot;&gt;mount /dev/vgname/lvname&amp;nbsp; /mnt/foo&lt;/font&gt;&lt;/h1&gt;&lt;p&gt;$ mount /dev/xvdf1/new-vg/lv1 /srv/application&lt;br&gt;&lt;/p&gt;&lt;p&gt;$ mount -a (for updating the mount entry) for fstab entries in case MBR partioning&lt;/p&gt;" style="text;html=1;strokeColor=none;fillColor=none;spacing=5;spacingTop=-20;whiteSpace=wrap;overflow=hidden;rounded=0;" parent="1" vertex="1">
          <mxGeometry x="340" y="270" width="460" height="100" as="geometry"/>
        </mxCell>
        <mxCell id="20" value="&lt;h1&gt;&lt;font style=&quot;font-size: 18px&quot;&gt;Storage Device (/dev/xvdf)&lt;/font&gt;&lt;/h1&gt;&lt;div&gt;$ gdisk /dev/xvdf (for GPT partioning (Lvm))&lt;/div&gt;&lt;div&gt;&lt;br&gt;&lt;/div&gt;" style="text;html=1;strokeColor=none;fillColor=none;spacing=5;spacingTop=-20;whiteSpace=wrap;overflow=hidden;rounded=0;" parent="1" vertex="1">
          <mxGeometry x="330" y="810" width="460" height="110" as="geometry"/>
        </mxCell>
        <mxCell id="21" value="&lt;p style=&quot;line-height: 110%&quot;&gt;&lt;/p&gt;&lt;h1&gt;&lt;font style=&quot;font-size: 18px&quot;&gt;$ pvcreate /dev/xvdf1 /dev/xvdg1&lt;/font&gt;&lt;/h1&gt;&lt;div&gt;We dont need always to make the PV it&#39;s optonal, we can also create vg on top of the sd coz its also pv.&lt;br&gt;&lt;/div&gt;&lt;div&gt;$ pvdisplay /  pvcreate&lt;/div&gt;&lt;div&gt;&lt;span&gt;$ sudo lvdisplay|awk  &#39;/LV Name/{n=$3} /Block device/{d=$3; sub(&quot;.*:&quot;,&quot;dm-&quot;,d); print d,n;}&#39;&lt;/span&gt;&lt;/div&gt;&lt;p&gt;&lt;br&gt;&lt;/p&gt;&lt;p&gt;&lt;br&gt;&lt;/p&gt;&lt;p&gt;&lt;br&gt;&lt;/p&gt;&lt;p&gt;&lt;br&gt;&lt;/p&gt;&lt;p&gt;&lt;br&gt;&lt;/p&gt;&lt;p&gt;&lt;br&gt;&lt;/p&gt;&lt;p&gt;&lt;br&gt;&lt;/p&gt;&lt;p&gt;&lt;br&gt;&lt;/p&gt;&lt;p&gt;&lt;br&gt;&lt;/p&gt;&lt;p&gt;&lt;br&gt;&lt;/p&gt;&lt;p&gt;&lt;br&gt;&lt;/p&gt;&lt;p&gt;&lt;/p&gt;" style="text;html=1;strokeColor=none;fillColor=none;spacing=5;spacingTop=-20;whiteSpace=wrap;overflow=hidden;rounded=0;" parent="1" vertex="1">
          <mxGeometry x="330" y="685" width="460" height="125" as="geometry"/>
        </mxCell>
        <mxCell id="22" value="&lt;h1&gt;&lt;font style=&quot;font-size: 18px&quot;&gt;$ vgcreate vgname /dev/xvdf1 /dev/xvdf2&lt;/font&gt;&lt;/h1&gt;&lt;p&gt;VG&#39;s Will appear inside the /dev/withyellowcolor&lt;/p&gt;&lt;p&gt;$ vgcreate vgname /dev/xvdf/&lt;br&gt;&lt;/p&gt;" style="text;html=1;strokeColor=none;fillColor=none;spacing=5;spacingTop=-20;whiteSpace=wrap;overflow=hidden;rounded=0;" parent="1" vertex="1">
          <mxGeometry x="332" y="580" width="478" height="100" as="geometry"/>
        </mxCell>
        <mxCell id="23" value="&lt;h1&gt;&lt;font style=&quot;font-size: 18px&quot;&gt;$ lvcreate -n lv1 -L 10G vgname&lt;/font&gt;&lt;/h1&gt;&lt;p&gt;LV&#39;s will be inside the /dev/new-vg/lv-withbluecolor&lt;/p&gt;&lt;p&gt;$ lvcreate vgname /dev/xvdf /dev/xvdf1&lt;br&gt;&lt;/p&gt;" style="text;html=1;strokeColor=none;fillColor=none;spacing=5;spacingTop=-20;whiteSpace=wrap;overflow=hidden;rounded=0;" parent="1" vertex="1">
          <mxGeometry x="332" y="480" width="460" height="100" as="geometry"/>
        </mxCell>
        <mxCell id="24" value="&lt;h1&gt;&lt;font style=&quot;font-size: 18px&quot;&gt;$ mkfs -t xfs/ext4 &quot;lv1(GBT) or xvdf1(MBR)&quot;&lt;/font&gt;&lt;br&gt;&lt;/h1&gt;&lt;p&gt;$ mkfs -t xfs lv1&lt;/p&gt;&lt;p&gt;# Optionally we can also make filesystem for PV also.&lt;/p&gt;" style="text;html=1;strokeColor=none;fillColor=none;spacing=5;spacingTop=-20;whiteSpace=wrap;overflow=hidden;rounded=0;" parent="1" vertex="1">
          <mxGeometry x="340" y="370" width="460" height="100" as="geometry"/>
        </mxCell>
        <mxCell id="25" value="" style="endArrow=classic;html=1;exitX=1;exitY=0.25;" parent="1" source="3" edge="1">
          <mxGeometry width="50" height="50" relative="1" as="geometry">
            <mxPoint x="260" y="380" as="sourcePoint"/>
            <mxPoint x="320" y="330" as="targetPoint"/>
          </mxGeometry>
        </mxCell>
        <mxCell id="26" value="" style="endArrow=classic;html=1;exitX=1;exitY=0.75;" parent="1" source="4" edge="1">
          <mxGeometry width="50" height="50" relative="1" as="geometry">
            <mxPoint x="270" y="490" as="sourcePoint"/>
            <mxPoint x="320" y="440" as="targetPoint"/>
          </mxGeometry>
        </mxCell>
        <mxCell id="27" value="" style="endArrow=classic;html=1;exitX=1;exitY=0.75;" parent="1" source="5" edge="1">
          <mxGeometry width="50" height="50" relative="1" as="geometry">
            <mxPoint x="260" y="560" as="sourcePoint"/>
            <mxPoint x="310" y="510" as="targetPoint"/>
          </mxGeometry>
        </mxCell>
        <mxCell id="28" value="" style="endArrow=classic;html=1;exitX=1;exitY=0.75;" parent="1" source="6" edge="1">
          <mxGeometry width="50" height="50" relative="1" as="geometry">
            <mxPoint x="260" y="620" as="sourcePoint"/>
            <mxPoint x="320" y="605" as="targetPoint"/>
          </mxGeometry>
        </mxCell>
        <mxCell id="29" value="" style="endArrow=classic;html=1;exitX=1;exitY=0.75;" parent="1" source="7" edge="1">
          <mxGeometry width="50" height="50" relative="1" as="geometry">
            <mxPoint x="260" y="740" as="sourcePoint"/>
            <mxPoint x="310" y="700" as="targetPoint"/>
          </mxGeometry>
        </mxCell>
        <mxCell id="30" value="" style="endArrow=classic;html=1;exitX=1;exitY=0.75;" parent="1" edge="1">
          <mxGeometry width="50" height="50" relative="1" as="geometry">
            <mxPoint x="260" y="740" as="sourcePoint"/>
            <mxPoint x="310" y="815" as="targetPoint"/>
          </mxGeometry>
        </mxCell>
        <mxCell id="33" value="" style="rounded=0;whiteSpace=wrap;html=1;" parent="1" vertex="1">
          <mxGeometry x="20" y="320" width="240" height="60" as="geometry"/>
        </mxCell>
        <mxCell id="34" value="&lt;font style=&quot;font-size: 25px&quot;&gt;fstab-entry(MBR)&lt;/font&gt;" style="text;html=1;strokeColor=none;fillColor=none;align=center;verticalAlign=middle;whiteSpace=wrap;rounded=0;" parent="1" vertex="1">
          <mxGeometry x="40" y="330" width="200" height="40" as="geometry"/>
        </mxCell>
        <mxCell id="35" value="&lt;h1&gt;&lt;font style=&quot;font-size: 18px&quot;&gt;$ blkid (for MBR only )&lt;/font&gt;&lt;/h1&gt;&lt;p&gt;# We need to manually make the fstab entry to make sure the mount&amp;nbsp; persistent after rebooting of system. We dont use mount in this case.&lt;/p&gt;&lt;p&gt;&lt;span&gt;# We will make the /etc/fstab entry using the &#39;blkid&#39; cmd gives blocks available info&lt;/span&gt;&lt;/p&gt;&lt;p&gt;&lt;span&gt;we can make fstab entry in 2 types tagnames and UUID&#39;s the below cmds create the tagnames&lt;/span&gt;&lt;/p&gt;&lt;p&gt;$ xfs_admin -L xfsfstagname /dev/xvdg1&lt;/p&gt;&lt;p&gt;$ tune2fs -L ext4fs-tagname /dev/xvdf1&lt;/p&gt;" style="text;html=1;strokeColor=none;fillColor=none;spacing=5;spacingTop=-20;whiteSpace=wrap;overflow=hidden;rounded=0;" parent="1" vertex="1">
          <mxGeometry x="49" y="70" width="722" height="190" as="geometry"/>
        </mxCell>
        <mxCell id="36" value="" style="endArrow=classic;html=1;exitX=0.792;exitY=0.017;exitPerimeter=0;entryX=0.267;entryY=1.026;entryPerimeter=0;" parent="1" source="33" target="35" edge="1">
          <mxGeometry width="50" height="50" relative="1" as="geometry">
            <mxPoint x="260" y="320" as="sourcePoint"/>
            <mxPoint x="260" y="270" as="targetPoint"/>
            <Array as="points">
              <mxPoint x="230" y="300"/>
            </Array>
          </mxGeometry>
        </mxCell>
        <mxCell id="37" value="&lt;font style=&quot;font-size: 30px&quot; color=&quot;#990000&quot;&gt;MBR &amp;amp; GBT-LVM in Linux&lt;/font&gt;" style="text;html=1;strokeColor=none;fillColor=none;align=center;verticalAlign=middle;whiteSpace=wrap;rounded=0;" parent="1" vertex="1">
          <mxGeometry x="245" y="20" width="355" height="50" as="geometry"/>
        </mxCell>
        <mxCell id="39" value="&lt;b&gt;&lt;font style=&quot;font-size: 18px&quot;&gt;SWAP memory&lt;/font&gt;&lt;/b&gt;" style="text;html=1;strokeColor=none;fillColor=none;align=center;verticalAlign=middle;whiteSpace=wrap;rounded=0;" parent="1" vertex="1">
          <mxGeometry x="230" y="930" width="300" height="40" as="geometry"/>
        </mxCell>
        <mxCell id="40" value="&lt;div&gt;We create like a normal LV and assign in /etc/fstab entry as swap with UUID, we need to define explicitly the type of memory so the fstab entry will condider the UUID as the SWAP memory.&lt;/div&gt;&lt;div&gt;&lt;br&gt;&lt;/div&gt;&lt;div&gt;$ swapon -s $ cat /proc/partions $ cat /proc/swaps                              &lt;/div&gt;&lt;div&gt;&lt;br&gt;&lt;/div&gt;&lt;div&gt;SwAP memory is substitute memory to the RAM when the OS having the high RAM consumption the SWAP memory will be consider to use the remaining memory space.&lt;br&gt;&lt;/div&gt;&lt;div&gt;&lt;br&gt;&lt;/div&gt;&lt;div&gt;We can make the swap partition by lvm or regular partition ffrom selecting &quot;Linux Swap&quot; then you can mount the pv to mount dedicatedly.&lt;/div&gt;&lt;div&gt;We create the LVM partition and change to swap file system and then we attach it to the swap space using the below command&amp;nbsp;&lt;/div&gt;&lt;div&gt;lvcreate -n swap -L 2G vlm-grpname&lt;/div&gt;&lt;div&gt;mkswap /dev/vlm-grp-name/swaplv-name&lt;/div&gt;&lt;div&gt;swapon /dev/vlm-grp-name/lv-name&lt;/div&gt;" style="text;html=1;strokeColor=none;fillColor=none;align=center;verticalAlign=middle;whiteSpace=wrap;rounded=0;" parent="1" vertex="1">
          <mxGeometry x="57.5" y="970" width="730" height="180" as="geometry"/>
        </mxCell>
        <mxCell id="41" value="&lt;div&gt;MBR: Its is partitioning system which is bit old and maximum partitions allowed in it was only 4.&lt;/div&gt;&lt;div&gt;Mak size of Partition is 2TiB&lt;br&gt;&lt;/div&gt;&lt;div&gt;&lt;br&gt;&lt;/div&gt;&lt;div&gt;GPT: GPT is effecient compared to MBR and i has the max partitions allowed up to 128.&lt;/div&gt;&lt;div&gt;Max Size of Each Partition: 8ZiB&lt;br&gt;&lt;/div&gt;" style="text;html=1;strokeColor=none;fillColor=none;align=center;verticalAlign=middle;whiteSpace=wrap;rounded=0;" parent="1" vertex="1">
          <mxGeometry x="29" y="810" width="191" height="140" as="geometry"/>
        </mxCell>
        <mxCell id="3zxoI__Rs_BeG1Az2qIO-42" value="For removing GBT partioning&amp;nbsp; follow&lt;br&gt;unmount&amp;nbsp;&lt;br&gt;lvremove&lt;br&gt;vgremove&lt;br&gt;pvremove&lt;br&gt;" style="text;html=1;strokeColor=none;fillColor=none;align=center;verticalAlign=middle;whiteSpace=wrap;rounded=0;" parent="1" vertex="1">
          <mxGeometry x="490" y="860" width="290" height="110" as="geometry"/>
        </mxCell>
      </root>
    </mxGraphModel>
  </diagram>
</mxfile>
